<svg xmlns="http://www.w3.org/2000/svg" version="1.1" xmlns:xlink="http://www.w3.org/1999/xlink" xmlns:svgjs="http://svgjs.dev/svgjs" width="1500" height="1500" viewBox="0 0 1500 1500"><rect width="1500" height="1500" fill="#000000"></rect><g transform="matrix(0.6666666666666666,0,0,0.6666666666666666,249.39393939393938,438.5856950067477)"><svg viewBox="0 0 396 247" data-background-color="#e0ded5" preserveAspectRatio="xMidYMid meet" height="935" width="1500" xmlns="http://www.w3.org/2000/svg" xmlns:xlink="http://www.w3.org/1999/xlink"><g id="tight-bounds" transform="matrix(1,0,0,1,0.2400000000000091,-0.09999999999999432)"><svg viewBox="0 0 395.52 247.2" height="247.2" width="395.52"><g><svg></svg></g><g><svg viewBox="0 0 395.52 247.2" height="247.2" width="395.52"><g transform="matrix(1,0,0,1,133.06438909090906,47.215199999999996)"><svg viewBox="0 0 129.39122181818183 152.7696" height="152.7696" width="129.39122181818183"><g><svg viewBox="0 0 129.39122181818183 152.7696" height="152.7696" width="129.39122181818183"><g><svg viewBox="0 0 129.39122181818183 152.7696" height="152.7696" width="129.39122181818183"><g><svg viewBox="0 0 129.39122181818183 152.7696" height="152.7696" width="129.39122181818183"><g id="textblocktransform"><svg viewBox="0 0 129.39122181818183 152.7696" height="152.7696" width="129.39122181818183" id="textblock"><g><svg viewBox="0 0 129.39122181818183 152.7696" height="152.7696" width="129.39122181818183"><g transform="matrix(1,0,0,1,0,0)"><svg width="129.39122181818183" viewBox="1 -33 27.949999999999996 33" height="152.7696" data-palette-color="#243cfc"><path d="M17.95-33L17.95-33Q23.55-33 26.25-30.43 28.95-27.85 28.95-23.65L28.95-23.65Q28.95-20.45 27.38-18.03 25.8-15.6 22.88-14.25 19.95-12.9 15.9-12.9L15.9-12.9Q15-12.9 13.7-13.05 12.4-13.2 10.95-13.5L10.95-13.5 10.95-16.65Q12.6-16.3 13.78-16.07 14.95-15.85 15.85-15.85L15.85-15.85Q16.55-15.85 17.15-15.93 17.75-16 18.3-16.1L18.3-16.1Q19.9-17.15 20.68-19.03 21.45-20.9 21.45-23L21.45-23Q21.45-24.8 20.9-26.43 20.35-28.05 19.25-29.08 18.15-30.1 16.55-30.1L16.55-30.1Q15.55-30.1 14.7-29.98 13.85-29.85 13.2-29.75L13.2-29.75Q13.2-28.35 13.2-26.13 13.2-23.9 13.2-21.5 13.2-19.1 13.2-17.05 13.2-15 13.2-13.9L13.2-13.9Q13.2-12.2 13.2-11.18 13.2-10.15 13.2-9.47 13.2-8.8 13.2-8.08 13.2-7.35 13.2-6.23 13.2-5.1 13.2-3.2L13.2-3.2 18.7-1.9 18 0Q15.4-0.15 9.45-0.15L9.45-0.15Q7-0.15 5.15-0.1 3.3-0.05 1.75 0L1.75 0 1-1.9 5.65-2.95Q5.75-5.2 5.8-8.03 5.85-10.85 5.88-13.6 5.9-16.35 5.9-18.3L5.9-18.3Q5.9-20.9 5.88-22.73 5.85-24.55 5.8-26.18 5.75-27.8 5.65-29.8L5.65-29.8 1.2-31.1 1.75-33Q3.3-32.95 4.45-32.9 5.6-32.85 6.78-32.83 7.95-32.8 9.4-32.8L9.4-32.8Q10.95-32.8 12.2-32.85 13.45-32.9 14.78-32.95 16.1-33 17.95-33Z" opacity="1" transform="matrix(1,0,0,1,0,0)" fill="#ffffff" class="wordmark-text-0" data-fill-palette-color="primary" id="text-0"></path></svg></g></svg></g></svg></g></svg></g></svg></g></svg></g></svg></g><g><path d="M0 123.6c0-68.262 55.338-123.6 123.6-123.6 30.402 0 58.24 10.976 79.768 29.183l-11.147 0c-19.26-14.022-42.974-22.294-68.621-22.295-64.458 0-116.712 52.254-116.712 116.712 0 64.458 52.254 116.712 116.712 116.712 25.647 0 49.361-8.272 68.621-22.295l11.147 0c-21.528 18.206-49.366 29.183-79.768 29.183-68.262 0-123.6-55.338-123.6-123.6z" fill="#ffffff" stroke="transparent" data-fill-palette-color="tertiary"></path></g></svg></g><defs></defs></svg><rect width="395.52" height="247.2" fill="none" stroke="none" visibility="hidden"></rect></g></svg></g></svg>