<svg xmlns="http://www.w3.org/2000/svg" version="1.1" xmlns:xlink="http://www.w3.org/1999/xlink" xmlns:svgjs="http://svgjs.dev/svgjs" width="2000" height="2250" viewBox="0 0 2000 2250"><g transform="matrix(1,0,0,1,0.0004624580885774776,0)"><svg viewBox="0 0 320 360" data-background-color="#ffffff" preserveAspectRatio="xMidYMid meet" height="2250" width="2000" xmlns="http://www.w3.org/2000/svg" xmlns:xlink="http://www.w3.org/1999/xlink"><g id="tight-bounds" transform="matrix(1,0,0,1,-0.00007399329416557521,0)"><svg viewBox="0 0 320 360" height="360" width="320"><g><svg></svg></g><g><svg viewBox="0 0 320 360" height="360" width="320"><g><path transform="translate(-17.30355,3.60951) scale(3.54253,3.54253)" d="M50 95v0c-2.2 0-4.1-1.4-4.7-3.5-0.3-1.1-1.5-1.7-2.5-1.4-0.4 0.1-0.8 0.4-1.1 0.8-1.6 2.2-4.6 2.8-6.9 1.2-1.4-0.9-2.2-2.5-2.1-4.2 0-1.1-0.9-2.1-2-2.1-0.5 0-0.9 0.1-1.3 0.4-2.2 1.6-5.3 1.2-6.9-1-1-1.3-1.3-3-0.7-4.6 0.4-1.1-0.2-2.2-1.3-2.6-0.4-0.1-0.9-0.1-1.3 0-2.6 0.9-5.4-0.5-6.3-3.1-0.5-1.5-0.3-3.3 0.7-4.6 0.7-0.9 0.5-2.2-0.4-2.8-0.4-0.3-0.8-0.4-1.3-0.4-2.7 0.1-5-2.1-5-4.8 0-1.7 0.8-3.2 2.1-4.2 0.9-0.6 1.1-1.9 0.5-2.8-0.3-0.4-0.6-0.6-1.1-0.8-2.6-0.8-4.1-3.6-3.3-6.2 0.5-1.6 1.7-2.8 3.3-3.3 1.1-0.3 1.7-1.5 1.4-2.5-0.1-0.4-0.4-0.8-0.8-1.1-2.2-1.6-2.8-4.6-1.2-6.9 0.9-1.4 2.5-2.2 4.2-2.1 1.1 0 2.1-0.9 2.1-2 0-0.5-0.1-0.9-0.4-1.3-1.6-2.2-1.2-5.3 1-6.9 1.3-1 3-1.3 4.6-0.7 1.1 0.4 2.2-0.2 2.6-1.3 0.1-0.4 0.1-0.9 0-1.3-0.9-2.6 0.5-5.4 3.1-6.3 1.5-0.5 3.3-0.3 4.6 0.7 0.9 0.7 2.2 0.5 2.8-0.4 0.3-0.4 0.4-0.8 0.4-1.3-0.1-2.7 2.1-5 4.8-5 1.7 0 3.2 0.8 4.2 2.1 0.6 0.9 1.9 1.1 2.8 0.5 0.4-0.3 0.6-0.6 0.8-1.1 0.8-2.6 3.6-4.1 6.2-3.3 1.6 0.5 2.8 1.7 3.3 3.3v0c0.2 0.7 0.8 1.3 1.6 1.4 0.8 0.1 1.5-0.2 2-0.8 1.6-2.2 4.6-2.8 6.9-1.2 1.4 0.9 2.2 2.5 2.1 4.2 0 1.1 0.9 2.1 2 2.1 0.5 0 0.9-0.1 1.3-0.4 2.2-1.6 5.3-1.2 6.9 1 1 1.3 1.3 3 0.7 4.6-0.4 1.1 0.2 2.2 1.3 2.6 0.4 0.1 0.9 0.1 1.3 0 2.6-0.9 5.4 0.5 6.3 3.1 0.5 1.5 0.3 3.3-0.7 4.6-0.7 0.9-0.5 2.2 0.4 2.8 0.4 0.3 0.8 0.4 1.3 0.4 2.7-0.1 5 2.1 5 4.8 0 1.7-0.8 3.2-2.1 4.2-0.7 0.4-1 1.2-0.9 2 0.1 0.8 0.7 1.4 1.4 1.6 2.6 0.8 4.1 3.6 3.3 6.2-0.5 1.6-1.7 2.8-3.3 3.3-1.1 0.3-1.7 1.5-1.4 2.5 0.1 0.4 0.4 0.8 0.8 1.1 2.2 1.6 2.8 4.6 1.2 6.9-0.9 1.4-2.5 2.2-4.2 2.1-0.8 0-1.5 0.4-1.9 1.1-0.4 0.7-0.3 1.5 0.2 2.2 1.6 2.2 1.2 5.3-1 6.9-1.3 1-3 1.3-4.6 0.7-1.1-0.4-2.2 0.2-2.6 1.3-0.1 0.4-0.1 0.9 0 1.3 0.9 2.6-0.5 5.4-3.1 6.3-1.5 0.5-3.3 0.3-4.6-0.7-0.9-0.7-2.2-0.5-2.8 0.4-0.3 0.4-0.4 0.8-0.4 1.3 0.1 2.7-2.1 5-4.8 5-1.7 0-3.2-0.8-4.2-2.1-0.4-0.6-1.2-1-2-0.8-0.8 0.1-1.4 0.7-1.6 1.4-0.6 2.1-2.5 3.5-4.7 3.5zM43.3 87.2c0.3 0 0.5 0 0.8 0.1 1.9 0.3 3.4 1.6 3.9 3.4 0.3 1.1 1.5 1.7 2.5 1.3 0.6-0.2 1.1-0.7 1.3-1.3 0.8-2.6 3.6-4.1 6.2-3.3 1 0.3 2 1 2.6 1.9 0.7 0.9 1.9 1.1 2.9 0.4 0.5-0.4 0.8-1 0.8-1.6-0.1-2.7 2.1-5 4.8-5 1.1 0 2.2 0.3 3.1 1 0.9 0.7 2.2 0.5 2.8-0.4 0.4-0.5 0.5-1.3 0.3-1.9-0.9-2.6 0.4-5.4 3-6.3 1.1-0.4 2.2-0.4 3.3 0 1.1 0.4 2.2-0.2 2.6-1.3 0.2-0.6 0.1-1.4-0.3-1.9-1.6-2.2-1.2-5.3 1-6.9 0.9-0.7 2-1 3.1-1 1.1 0 2-0.9 2.1-2 0-0.7-0.3-1.3-0.9-1.7-2.2-1.6-2.8-4.6-1.2-6.9 0.6-0.9 1.5-1.6 2.6-1.9 1.1-0.3 1.7-1.5 1.3-2.5-0.2-0.6-0.7-1.1-1.3-1.3-2.6-0.8-4.1-3.6-3.3-6.2 0.3-1 1-2 1.9-2.6 0.9-0.7 1.1-2 0.4-2.9-0.4-0.5-1-0.8-1.6-0.8-2.7 0.1-5-2.1-5-4.8 0-1.1 0.3-2.2 1-3.1 0.7-0.9 0.5-2.2-0.4-2.8-0.5-0.4-1.3-0.5-1.9-0.3-2.6 0.9-5.4-0.4-6.3-3-0.4-1.1-0.4-2.2 0-3.3 0.4-1.1-0.2-2.2-1.3-2.6-0.6-0.2-1.4-0.1-1.9 0.3-2.2 1.6-5.3 1.2-6.9-1-0.7-0.9-1-2-1-3.1 0-1.1-0.9-2-2.1-2-0.6 0-1.3 0.3-1.6 0.8-1.6 2.2-4.6 2.8-6.9 1.2-0.9-0.6-1.6-1.5-1.9-2.6v0c-0.3-1.1-1.5-1.7-2.5-1.3-0.6 0.2-1.1 0.7-1.3 1.3-0.8 2.6-3.6 4.1-6.2 3.3-1-0.3-2-1-2.6-1.9-0.7-0.9-1.9-1.1-2.9-0.4-0.5 0.4-0.8 1-0.8 1.6 0.1 2.7-2.1 5-4.8 5-1.1 0-2.2-0.3-3.1-1-0.9-0.7-2.2-0.5-2.8 0.4-0.4 0.5-0.5 1.3-0.3 1.9 0.9 2.6-0.4 5.4-3 6.3-1.1 0.4-2.2 0.4-3.3 0-1.1-0.4-2.2 0.2-2.6 1.3-0.2 0.6-0.1 1.4 0.3 1.9 1.6 2.2 1.2 5.3-1 6.9-0.9 0.7-2 1-3.1 1-1.1 0-2 0.9-2 2.1 0 0.6 0.3 1.3 0.8 1.6 2.2 1.6 2.8 4.6 1.2 6.9-0.6 0.9-1.5 1.6-2.6 1.9-1.1 0.3-1.7 1.5-1.3 2.5 0.2 0.6 0.7 1.1 1.3 1.3 2.6 0.8 4.1 3.6 3.3 6.2-0.3 1-1 2-1.9 2.6-0.9 0.7-1.1 1.9-0.4 2.9 0.4 0.5 1 0.8 1.6 0.8 2.7-0.1 5 2.1 5 4.8 0 1.1-0.3 2.2-1 3.1-0.7 0.9-0.5 2.2 0.4 2.8 0.5 0.4 1.3 0.5 1.9 0.3 2.6-0.9 5.4 0.4 6.3 3 0.4 1.1 0.4 2.2 0 3.3-0.4 1.1 0.2 2.2 1.3 2.6 0.6 0.2 1.4 0.1 1.9-0.3 2.2-1.6 5.3-1.2 6.9 1 0.7 0.9 1 2 1 3.1 0 1.1 0.9 2 2 2.1 0.7 0 1.3-0.3 1.7-0.9 1-1.3 2.5-2.1 4.1-2.1z" fill="#1d98ff" fill-rule="nonzero" stroke="none" stroke-width="1" stroke-linecap="butt" stroke-linejoin="miter" stroke-miterlimit="10" stroke-dasharray="" stroke-dashoffset="0" font-family="none" font-weight="none" font-size="none" text-anchor="none" style="mix-blend-mode: normal" data-fill-palette-color="tertiary"></path></g><g transform="matrix(1,0,0,1,56,140.97192571602716)"><svg viewBox="0 0 208 78.05614856794567" height="78.05614856794567" width="208"><g><svg viewBox="0 0 208 78.05614856794567" height="78.05614856794567" width="208"><g><svg viewBox="0 0 358.7868811044003 134.64193315247564" height="78.05614856794567" width="208"><g transform="matrix(1,0,0,1,150.78688110440035,5.281298787716089)"><svg viewBox="0 0 208 124.07933557704347" height="124.07933557704347" width="208"><g id="textblocktransform"><svg viewBox="0 0 208 124.07933557704347" height="124.07933557704347" width="208" id="textblock"><g><svg viewBox="0 0 208 94.21915444348576" height="94.21915444348576" width="208"><g transform="matrix(1,0,0,1,0,0)"><svg width="208" viewBox="1.95 -28.98 84.89 38.45" height="94.21915444348576" data-palette-color="#3de5ef"><path d="M16.85-28.98Q20.09-28.98 22.41-27.83 24.73-26.68 25.94-24.58 27.15-22.49 27.15-19.73L27.15-19.73Q27.15-16.97 25.94-14.9 24.73-12.84 22.41-11.71 20.09-10.57 16.85-10.57L16.85-10.57 11.11-10.57 11.11-3.32 16.97-3.32Q17.8-3.32 18.15-2.94 18.51-2.56 18.51-1.66L18.51-1.66Q18.51-0.76 18.15-0.38 17.8 0 16.97 0L16.97 0 3.49 0Q2.66 0 2.31-0.38 1.95-0.76 1.95-1.66L1.95-1.66Q1.95-2.56 2.31-2.94 2.66-3.32 3.49-3.32L3.49-3.32 7.45-3.32 7.45-25.66 3.49-25.66Q2.66-25.66 2.31-26.04 1.95-26.42 1.95-27.32L1.95-27.32Q1.95-28.22 2.31-28.6 2.66-28.98 3.49-28.98L3.49-28.98 16.85-28.98ZM11.11-25.66L11.11-13.89 16.33-13.89Q19.73-13.89 21.51-15.43 23.29-16.97 23.29-19.73L23.29-19.73Q23.29-22.53 21.5-24.1 19.7-25.66 16.33-25.66L16.33-25.66 11.11-25.66ZM44.97-23.1Q48.31-23.1 51-21.58 53.68-20.07 55.21-17.37 56.74-14.67 56.74-11.28L56.74-11.28Q56.74-7.89 55.21-5.19 53.68-2.49 51-0.98 48.31 0.54 44.97 0.54L44.97 0.54Q41.62 0.54 38.94-0.98 36.25-2.49 34.73-5.19 33.2-7.89 33.2-11.28L33.2-11.28Q33.2-14.67 34.73-17.37 36.25-20.07 38.94-21.58 41.62-23.1 44.97-23.1L44.97-23.1ZM44.97-19.48Q42.6-19.48 40.81-18.44 39.01-17.41 38.03-15.54 37.06-13.67 37.06-11.28L37.06-11.28Q37.06-8.89 38.03-7.02 39.01-5.15 40.81-4.11 42.6-3.08 44.97-3.08L44.97-3.08Q47.34-3.08 49.13-4.11 50.93-5.15 51.9-7.02 52.88-8.89 52.88-11.28L52.88-11.28Q52.88-13.67 51.9-15.54 50.93-17.41 49.13-18.44 47.34-19.48 44.97-19.48L44.97-19.48ZM76.29-23.1Q79.32-23.1 81.71-21.67 84.1-20.24 85.47-17.57 86.84-14.89 86.84-11.28L86.84-11.28Q86.84-7.67 85.47-4.99 84.1-2.32 81.71-0.89 79.32 0.54 76.29 0.54L76.29 0.54Q71.7 0.54 68.55-3.49L68.55-3.49 68.55 6.15 72.75 6.15Q73.58 6.15 73.93 6.53 74.29 6.91 74.29 7.81L74.29 7.81Q74.29 8.72 73.93 9.09 73.58 9.47 72.75 9.47L72.75 9.47 62.4 9.47Q61.57 9.47 61.21 9.09 60.86 8.72 60.86 7.81L60.86 7.81Q60.86 6.91 61.21 6.53 61.57 6.15 62.4 6.15L62.4 6.15 64.89 6.15 64.89-19.24 62.89-19.24Q62.06-19.24 61.7-19.62 61.35-20 61.35-20.9L61.35-20.9Q61.35-21.8 61.7-22.18 62.06-22.56 62.89-22.56L62.89-22.56 66.77-22.56Q67.6-22.56 67.95-22.18 68.31-21.8 68.31-20.9L68.31-20.9 68.31-18.95Q69.84-20.95 71.87-22.02 73.9-23.1 76.29-23.1L76.29-23.1ZM76.04-19.48Q73.87-19.48 72.18-18.51 70.48-17.53 69.51-15.67 68.55-13.82 68.55-11.28L68.55-11.28Q68.55-8.74 69.51-6.88 70.48-5.03 72.18-4.05 73.87-3.08 76.04-3.08L76.04-3.08Q78.22-3.08 79.78-4.11 81.34-5.15 82.16-7.01 82.98-8.86 82.98-11.28L82.98-11.28Q82.98-13.7 82.16-15.55 81.34-17.41 79.78-18.44 78.22-19.48 76.04-19.48L76.04-19.48Z" opacity="1" transform="matrix(1,0,0,1,0,0)" fill="#3de5ef" class="wordmark-text-0" data-fill-palette-color="primary" id="text-0"></path></svg></g></svg></g><g transform="matrix(1,0,0,1,0,116.4620355478861)"><svg viewBox="0 0 208 7.617300029157353" height="7.617300029157353" width="208"><g transform="matrix(1,0,0,1,0,0)"><svg width="208" viewBox="1.83 -37.7 1255.88 46" height="7.617300029157353" data-palette-color="#111111"><path d="M9.03-32.79L10.03-37.01 36.89-37.01 34.45-26.44 29.39-26.44 30.88-32.79 17.7-32.79 14.99-20.95 25.88-20.95 24.83-16.75 14.04-16.75 11.16-4.2 24.19-4.2 25.68-10.6 30.79-10.6 28.34 0 1.83 0 2.78-4.2 6.05-4.2 12.65-32.79 9.03-32.79ZM62.25-32.79L63.21-37.01 75.22-37.01 74.27-32.79 71.02-32.79 52.81 0 45.36 0 42.21-32.79 38.82-32.79 39.77-37.01 51.76-37.01 50.8-32.79 47.39-32.79 49.8-4.25 65.55-32.79 62.25-32.79ZM79.46-32.79L80.46-37.01 107.32-37.01 104.88-26.44 99.82-26.44 101.31-32.79 88.13-32.79 85.42-20.95 96.31-20.95 95.26-16.75 84.47-16.75 81.59-4.2 94.62-4.2 96.11-10.6 101.22-10.6 98.77 0 72.26 0 73.21-4.2 76.48-4.2 83.08-32.79 79.46-32.79ZM113.96-32.79L114.96-37.01 130.02-37.01Q132.15-37.01 133.88-36.38 135.61-35.74 136.85-34.59 138.08-33.45 138.75-31.85 139.42-30.25 139.42-28.34L139.42-28.34Q139.42-26.37 138.75-24.69 138.08-23.02 136.94-21.72 135.81-20.41 134.31-19.47 132.81-18.53 131.14-17.99L131.14-17.99Q132.1-17.31 132.76-15.94 133.42-14.58 133.46-12.7L133.46-12.7 133.61-4.2 136.76-4.2 135.81 0 128.65 0 128.51-11.25Q128.46-14.31 127.12-15.72 125.77-17.14 123.06-17.14L123.06-17.14 119.08-17.14 116.13-4.2 119.77-4.2 118.82 0 106.8 0 107.76-4.2 111.03-4.2 117.62-32.79 113.96-32.79ZM128.41-32.79L122.67-32.79 120.04-21.24 125.82-21.24Q127.65-21.24 129.2-21.66 130.75-22.07 131.88-22.92 133-23.78 133.64-25.07 134.27-26.37 134.27-28.1L134.27-28.1Q134.27-29.13 133.93-29.99 133.59-30.86 132.87-31.48 132.15-32.1 131.03-32.45 129.92-32.79 128.41-32.79L128.41-32.79ZM144.35-32.79L145.3-37.01 157.29-37.01 156.34-32.79 153.36-32.79 157.63-21.24 167.67-32.79 164.69-32.79 165.64-37.01 177.65-37.01 176.7-32.79 173.7-32.79 159.39-16.77 156.46-4.2 159.9-4.2 158.95 0 146.94 0 147.89-4.2 151.33-4.2 154.26-16.87 147.94-32.79 144.35-32.79ZM210.14-27.29L210.24-27.76Q210.53-29.05 210.13-30.05 209.73-31.05 208.85-31.75 207.97-32.45 206.72-32.8 205.48-33.15 204.09-33.15L204.09-33.15Q202.06-33.15 200.46-32.62 198.86-32.08 197.76-31.15 196.66-30.22 196.08-28.99 195.49-27.76 195.49-26.39L195.49-26.39Q195.49-25.17 195.96-24.41 196.42-23.66 197.13-23.17 197.84-22.68 198.7-22.39 199.57-22.09 200.38-21.8L200.38-21.8 204.94-20.14Q206.7-19.56 208.02-18.75 209.34-17.94 210.21-16.88 211.09-15.82 211.53-14.47 211.97-13.11 211.97-11.4L211.97-11.4Q211.97-8.69 210.92-6.45 209.87-4.2 207.98-2.6 206.09-1 203.43-0.12 200.77 0.76 197.54 0.76L197.54 0.76Q194.64 0.76 192.62 0.13 190.61-0.49 189.32-1.55 188.02-2.61 187.38-3.98 186.73-5.35 186.56-6.86L186.56-6.86 184.24-6.86 185.19-10.74 191.83-10.74 191.39-8.94Q191.05-6.3 192.93-5 194.81-3.71 198.37-3.71L198.37-3.71Q200.2-3.71 201.74-4.22 203.28-4.74 204.39-5.65 205.5-6.57 206.14-7.85 206.77-9.13 206.77-10.64L206.77-10.64Q206.77-11.82 206.36-12.67 205.94-13.53 205.22-14.15 204.5-14.77 203.54-15.22 202.57-15.67 201.47-16.04L201.47-16.04 197.23-17.41Q193.91-18.46 192.2-20.53 190.49-22.61 190.49-25.85L190.49-25.85Q190.49-28.34 191.44-30.48 192.39-32.62 194.21-34.19 196.03-35.77 198.63-36.66 201.23-37.55 204.53-37.55L204.53-37.55Q206.6-37.55 208.33-37.08 210.07-36.62 211.4-35.79 212.73-34.96 213.64-33.79 214.56-32.62 214.98-31.2L214.98-31.2 217.44-31.2 216.49-27.29 210.14-27.29ZM222.61 0L223.57-4.2 226.98-4.2 233.63-33.01 224.67-33.01 223.37-27.25 218.37-27.25 220.61-37.01 253.62-37.01 251.35-27.25 246.37-27.25 247.66-33.01 238.68-33.01 232.09-4.2 235.55-4.2 234.6 0 222.61 0ZM257.35-32.79L258.35-37.01 285.21-37.01 282.77-26.44 277.71-26.44 279.2-32.79 266.02-32.79 263.31-20.95 274.2-20.95 273.15-16.75 262.36-16.75 259.48-4.2 272.51-4.2 274-10.6 279.11-10.6 276.66 0 250.15 0 251.1-4.2 254.37-4.2 260.97-32.79 257.35-32.79ZM291.85-32.79L292.85-37.01 307.69-37.01Q309.82-37.01 311.57-36.28 313.33-35.55 314.6-34.29 315.87-33.03 316.57-31.35 317.26-29.66 317.26-27.76L317.26-27.76Q317.26-25.24 316.31-23.1 315.36-20.95 313.52-19.38 311.67-17.82 308.95-16.93 306.23-16.04 302.71-16.04L302.71-16.04 296.68-16.04 293.97-4.2 297.66-4.2 296.71 0 284.69 0 285.65-4.2 288.87-4.2 295.46-32.79 291.85-32.79ZM306.3-32.79L300.51-32.79 297.66-20.24 303.25-20.24Q305.23-20.24 306.86-20.72 308.5-21.19 309.67-22.11 310.84-23.02 311.48-24.37 312.11-25.71 312.11-27.44L312.11-27.44Q312.11-28.47 311.77-29.43 311.43-30.4 310.72-31.14 310.01-31.88 308.91-32.34 307.81-32.79 306.3-32.79L306.3-32.79ZM330.69-32.79L331.64-37.01 343.62-37.01 342.67-32.79 339.69-32.79 343.97-21.24 354-32.79 351.02-32.79 351.97-37.01 363.99-37.01 363.03-32.79 360.03-32.79 345.72-16.77 342.79-4.2 346.24-4.2 345.29 0 333.27 0 334.23-4.2 337.67-4.2 340.6-16.87 334.27-32.79 330.69-32.79ZM376.09 0.76L376.09 0.76Q372.97 0.76 370.15-0.44 367.33-1.64 365.19-3.82 363.06-6.01 361.8-9.09 360.54-12.18 360.54-15.99L360.54-15.99Q360.54-19.19 361.3-22.03 362.05-24.88 363.42-27.29 364.79-29.71 366.71-31.64 368.62-33.57 370.95-34.91 373.29-36.25 375.95-36.98 378.61-37.7 381.49-37.7L381.49-37.7Q384.61-37.7 387.43-36.61 390.25-35.52 392.39-33.45 394.53-31.37 395.78-28.36 397.04-25.34 397.04-21.51L397.04-21.51Q397.04-18.24 396.31-15.31 395.58-12.38 394.24-9.91 392.91-7.45 391.02-5.47 389.13-3.49 386.8-2.11 384.47-0.73 381.76 0.01 379.05 0.76 376.09 0.76ZM376.65-4.2L376.65-4.2Q378.75-4.2 380.68-4.79 382.61-5.37 384.27-6.46 385.93-7.54 387.29-9.07 388.64-10.6 389.59-12.48 390.55-14.36 391.07-16.53 391.6-18.7 391.6-21.09L391.6-21.09Q391.6-23.75 390.8-25.9 390.01-28.05 388.59-29.58 387.18-31.1 385.22-31.92 383.27-32.74 380.95-32.74L380.95-32.74Q377.92-32.74 375.21-31.52 372.5-30.3 370.45-28.11 368.4-25.93 367.21-22.94 366.01-19.95 366.01-16.41L366.01-16.41Q366.01-13.79 366.8-11.56 367.6-9.33 369.01-7.69 370.43-6.05 372.38-5.13 374.34-4.2 376.65-4.2ZM403.14-32.79L404.09-37.01 416.11-37.01 415.15-32.79 411.74-32.79 407.8-15.6Q407.61-14.75 407.45-13.78 407.29-12.82 407.29-11.6L407.29-11.6Q407.27-10.25 407.71-8.95 408.15-7.64 409.07-6.6 410-5.57 411.44-4.93 412.88-4.3 414.88-4.3L414.88-4.3Q416.91-4.3 418.63-4.87 420.35-5.44 421.74-6.77 423.14-8.11 424.2-10.27 425.26-12.43 425.99-15.6L425.99-15.6 429.95-32.79 426.24-32.79 427.19-37.01 439.2-37.01 438.25-32.79 435-32.79 430.95-15.16Q430-10.99 428.42-8 426.85-5 424.75-3.09 422.65-1.17 420.06-0.28 417.47 0.61 414.45 0.61L414.45 0.61Q411.78 0.61 409.5-0.18 407.22-0.98 405.57-2.48 403.92-3.98 403.01-6.15 402.09-8.33 402.14-11.11L402.14-11.11Q402.14-12.21 402.29-13.29 402.43-14.38 402.7-15.6L402.7-15.6 406.66-32.79 403.14-32.79ZM454.85 0L455.8-4.2 459.22-4.2 465.86-33.01 456.9-33.01 455.6-27.25 450.6-27.25 452.84-37.01 485.85-37.01 483.58-27.25 478.6-27.25 479.89-33.01 470.91-33.01 464.32-4.2 467.78-4.2 466.83 0 454.85 0ZM499.59 0L500.55-4.2 503.65-4.2 502.74-12.55 488.73-12.55 484.07-4.2 487.39-4.2 486.46 0 474.45 0 475.4-4.2 478.6-4.2 497.15-37.01 505.04-37.01 508.9-4.2 512.56-4.2 511.61 0 499.59 0ZM500.45-33.54L491.07-16.75 502.28-16.75 500.45-33.54ZM528.3-18.9L547.64-32.79 548.64-37.01 558.14-37.01 557.14-32.79 554.84-32.79 534.41-18.41 545.83-4.2 549.69-4.2 548.74 0 538.8 0 539.75-4.2 528.3-18.9ZM522.74-32.79L523.74-37.01 535.75-37.01 534.75-32.79 531.4-32.79 524.86-4.2 528.5-4.2 527.55 0 515.53 0 516.49-4.2 519.76-4.2 526.35-32.79 522.74-32.79ZM562.82-32.79L563.82-37.01 590.68-37.01 588.24-26.44 583.18-26.44 584.67-32.79 571.49-32.79 568.78-20.95 579.67-20.95 578.62-16.75 567.83-16.75 564.95-4.2 577.98-4.2 579.47-10.6 584.57-10.6 582.13 0 555.62 0 556.57-4.2 559.84-4.2 566.43-32.79 562.82-32.79ZM588.26 6.67L593.34-6.91 598.68-4.81 592.43 8.3 588.26 6.67ZM622.75-32.79L623.75-37.01 650.61-37.01 648.17-26.44 643.11-26.44 644.6-32.79 631.42-32.79 628.71-20.95 639.6-20.95 638.55-16.75 627.76-16.75 624.87-4.2 637.91-4.2 639.4-10.6 644.5-10.6 642.06 0 615.55 0 616.5-4.2 619.77-4.2 626.36-32.79 622.75-32.79ZM675.97-32.79L676.92-37.01 688.93-37.01 687.98-32.79 684.74-32.79 666.52 0 659.08 0 655.93-32.79 652.53-32.79 653.49-37.01 665.47-37.01 664.52-32.79 661.1-32.79 663.52-4.25 679.27-32.79 675.97-32.79ZM693.18-32.79L694.18-37.01 721.04-37.01 718.59-26.44 713.54-26.44 715.03-32.79 701.85-32.79 699.14-20.95 710.03-20.95 708.98-16.75 698.18-16.75 695.3-4.2 708.34-4.2 709.83-10.6 714.93-10.6 712.49 0 685.98 0 686.93-4.2 690.2-4.2 696.79-32.79 693.18-32.79ZM727.67-32.79L728.68-37.01 743.74-37.01Q745.86-37.01 747.6-36.38 749.33-35.74 750.56-34.59 751.8-33.45 752.47-31.85 753.14-30.25 753.14-28.34L753.14-28.34Q753.14-26.37 752.47-24.69 751.8-23.02 750.66-21.72 749.52-20.41 748.02-19.47 746.52-18.53 744.86-17.99L744.86-17.99Q745.81-17.31 746.47-15.94 747.13-14.58 747.18-12.7L747.18-12.7 747.33-4.2 750.48-4.2 749.52 0 742.37 0 742.23-11.25Q742.18-14.31 740.83-15.72 739.49-17.14 736.78-17.14L736.78-17.14 732.8-17.14 729.85-4.2 733.48-4.2 732.53 0 720.52 0 721.47-4.2 724.74-4.2 731.34-32.79 727.67-32.79ZM742.13-32.79L736.39-32.79 733.75-21.24 739.54-21.24Q741.37-21.24 742.92-21.66 744.47-22.07 745.59-22.92 746.72-23.78 747.35-25.07 747.99-26.37 747.99-28.1L747.99-28.1Q747.99-29.13 747.65-29.99 747.3-30.86 746.58-31.48 745.86-32.1 744.75-32.45 743.64-32.79 742.13-32.79L742.13-32.79ZM758.07-32.79L759.02-37.01 771.01-37.01 770.05-32.79 767.08-32.79 771.35-21.24 781.38-32.79 778.4-32.79 779.36-37.01 791.37-37.01 790.42-32.79 787.41-32.79 773.11-16.77 770.18-4.2 773.62-4.2 772.67 0 760.66 0 761.61-4.2 765.05-4.2 767.98-16.87 761.66-32.79 758.07-32.79ZM793.64 0L794.59-4.2 798.01-4.2 804.65-33.01 795.69-33.01 794.39-27.25 789.39-27.25 791.63-37.01 824.64-37.01 822.37-27.25 817.39-27.25 818.68-33.01 809.7-33.01 803.11-4.2 806.58-4.2 805.62 0 793.64 0ZM854.38-32.79L855.38-37.01 867.39-37.01 866.39-32.79 863.04-32.79 856.5-4.2 860.14-4.2 859.19 0 847.17 0 848.13-4.2 851.4-4.2 854.47-17.5 833.55-17.5 830.5-4.2 834.14-4.2 833.18 0 821.17 0 822.12-4.2 825.4-4.2 831.99-32.79 828.37-32.79 829.38-37.01 841.39-37.01 840.39-32.79 837.04-32.79 834.48-21.61 855.43-21.61 857.99-32.79 854.38-32.79ZM875.93-32.79L876.91-37.01 888.92-37.01 887.92-32.79 884.48-32.79 877.93-4.2 881.33-4.2 880.37 0 868.36 0 869.31-4.2 872.83-4.2 879.42-32.79 875.93-32.79ZM920.58-32.79L921.53-37.01 933.52-37.01 932.57-32.79 929.25-32.79 921.73 0 915.33 0 905.25-30.64 899.17-4.2 902.88-4.2 901.93 0 889.92 0 890.87-4.2 894.12-4.2 900.73-32.79 897.07-32.79 898.07-37.01 908.23-37.01 918.19-6.59 924.2-32.79 920.58-32.79ZM964.77 0L959.89 0 961.11-5.42Q958.86-2.34 955.77-0.87 952.68 0.61 949.07 0.61L949.07 0.61Q945.73 0.61 942.87-0.67 940.01-1.95 937.94-4.2 935.86-6.45 934.69-9.47 933.52-12.5 933.52-15.99L933.52-15.99Q933.52-19.02 934.23-21.8 934.93-24.58 936.25-27 937.57-29.42 939.44-31.38 941.31-33.35 943.64-34.75 945.97-36.16 948.7-36.93 951.44-37.7 954.47-37.7L954.47-37.7Q956.79-37.7 958.76-37.16 960.74-36.62 962.35-35.74 963.96-34.86 965.17-33.73 966.38-32.59 967.16-31.4L967.16-31.4 970.97-31.4 969.97-27.2 963.23-27.2Q962.69-28.44 961.8-29.49 960.91-30.54 959.73-31.29 958.54-32.03 957.08-32.45 955.61-32.86 953.93-32.86L953.93-32.86Q951.73-32.86 949.78-32.28 947.83-31.69 946.17-30.6 944.51-29.52 943.17-28.02 941.84-26.51 940.92-24.68 939.99-22.85 939.49-20.75 938.99-18.65 938.99-16.41L938.99-16.41Q938.99-13.75 939.83-11.51 940.67-9.28 942.11-7.67 943.55-6.05 945.49-5.15 947.43-4.25 949.63-4.25L949.63-4.25Q951.85-4.25 953.82-4.87 955.78-5.49 957.41-6.68 959.03-7.86 960.3-9.56 961.57-11.25 962.4-13.4L962.4-13.4 952.07-13.4 953.07-17.7 968.77-17.7 964.77 0ZM1011.98-10.35L1016.67-7.86Q1015.25-5.86 1013.52-4.28 1011.79-2.71 1009.71-1.62 1007.63-0.54 1005.22 0.04 1002.8 0.61 1000.02 0.61L1000.02 0.61Q996.67 0.61 993.83-0.65 990.98-1.9 988.91-4.13 986.83-6.35 985.65-9.39 984.47-12.43 984.47-15.99L984.47-15.99Q984.47-19.04 985.19-21.85 985.91-24.66 987.22-27.06 988.54-29.47 990.42-31.43 992.3-33.4 994.63-34.79 996.97-36.18 999.69-36.94 1002.41-37.7 1005.41-37.7L1005.41-37.7Q1009.56-37.7 1012.8-36.02 1016.03-34.35 1018.11-31.4L1018.11-31.4 1021.92-31.4 1020.92-27.2 1014.18-27.2Q1013.64-28.44 1012.75-29.49 1011.86-30.54 1010.67-31.29 1009.49-32.03 1008.03-32.45 1006.56-32.86 1004.88-32.86L1004.88-32.86Q1001.65-32.86 998.92-31.56 996.18-30.25 994.18-28 992.18-25.76 991.06-22.77 989.93-19.78 989.93-16.41L989.93-16.41Q989.93-13.6 990.81-11.34 991.69-9.08 993.16-7.51 994.62-5.93 996.55-5.09 998.48-4.25 1000.58-4.25L1000.58-4.25Q1004.27-4.25 1007.06-5.77 1009.86-7.3 1011.98-10.35L1011.98-10.35ZM1053.51-32.79L1054.51-37.01 1066.52-37.01 1065.52-32.79 1062.17-32.79 1055.63-4.2 1059.27-4.2 1058.32 0 1046.3 0 1047.26-4.2 1050.53-4.2 1053.6-17.5 1032.68-17.5 1029.63-4.2 1033.27-4.2 1032.31 0 1020.3 0 1021.26-4.2 1024.53-4.2 1031.12-32.79 1027.51-32.79 1028.51-37.01 1040.52-37.01 1039.52-32.79 1036.17-32.79 1033.61-21.61 1054.56-21.61 1057.12-32.79 1053.51-32.79ZM1087.15 0L1088.1-4.2 1091.2-4.2 1090.3-12.55 1076.28-12.55 1071.62-4.2 1074.94-4.2 1074.01 0 1062 0 1062.95-4.2 1066.15-4.2 1084.71-37.01 1092.59-37.01 1096.45-4.2 1100.11-4.2 1099.16 0 1087.15 0ZM1088-33.54L1078.63-16.75 1089.83-16.75 1088-33.54ZM1133.75-32.79L1134.7-37.01 1146.69-37.01 1145.74-32.79 1142.42-32.79 1134.9 0 1128.5 0 1118.42-30.64 1112.34-4.2 1116.05-4.2 1115.1 0 1103.09 0 1104.04-4.2 1107.29-4.2 1113.9-32.79 1110.24-32.79 1111.24-37.01 1121.4-37.01 1131.36-6.59 1137.36-32.79 1133.75-32.79ZM1177.94 0L1173.05 0 1174.28-5.42Q1172.03-2.34 1168.94-0.87 1165.85 0.61 1162.24 0.61L1162.24 0.61Q1158.89 0.61 1156.04-0.67 1153.18-1.95 1151.11-4.2 1149.03-6.45 1147.86-9.47 1146.69-12.5 1146.69-15.99L1146.69-15.99Q1146.69-19.02 1147.4-21.8 1148.1-24.58 1149.42-27 1150.74-29.42 1152.61-31.38 1154.48-33.35 1156.81-34.75 1159.14-36.16 1161.87-36.93 1164.61-37.7 1167.63-37.7L1167.63-37.7Q1169.95-37.7 1171.93-37.16 1173.91-36.62 1175.52-35.74 1177.13-34.86 1178.34-33.73 1179.55-32.59 1180.33-31.4L1180.33-31.4 1184.14-31.4 1183.14-27.2 1176.4-27.2Q1175.86-28.44 1174.97-29.49 1174.08-30.54 1172.9-31.29 1171.71-32.03 1170.25-32.45 1168.78-32.86 1167.1-32.86L1167.1-32.86Q1164.9-32.86 1162.95-32.28 1160.99-31.69 1159.33-30.6 1157.67-29.52 1156.34-28.02 1155.01-26.51 1154.08-24.68 1153.16-22.85 1152.66-20.75 1152.16-18.65 1152.16-16.41L1152.16-16.41Q1152.16-13.75 1153-11.51 1153.84-9.28 1155.28-7.67 1156.72-6.05 1158.66-5.15 1160.6-4.25 1162.8-4.25L1162.8-4.25Q1165.02-4.25 1166.99-4.87 1168.95-5.49 1170.58-6.68 1172.2-7.86 1173.47-9.56 1174.74-11.25 1175.57-13.4L1175.57-13.4 1165.24-13.4 1166.24-17.7 1181.94-17.7 1177.94 0ZM1193.34-32.79L1194.34-37.01 1221.2-37.01 1218.76-26.44 1213.7-26.44 1215.19-32.79 1202.01-32.79 1199.3-20.95 1210.19-20.95 1209.14-16.75 1198.34-16.75 1195.46-4.2 1208.5-4.2 1209.99-10.6 1215.09-10.6 1212.65 0 1186.14 0 1187.09-4.2 1190.36-4.2 1196.95-32.79 1193.34-32.79ZM1245.12-27.29L1245.22-27.76Q1245.51-29.05 1245.11-30.05 1244.7-31.05 1243.83-31.75 1242.95-32.45 1241.7-32.8 1240.46-33.15 1239.07-33.15L1239.07-33.15Q1237.04-33.15 1235.44-32.62 1233.84-32.08 1232.74-31.15 1231.64-30.22 1231.06-28.99 1230.47-27.76 1230.47-26.39L1230.47-26.39Q1230.47-25.17 1230.94-24.41 1231.4-23.66 1232.11-23.17 1232.82-22.68 1233.68-22.39 1234.55-22.09 1235.35-21.8L1235.35-21.8 1239.92-20.14Q1241.68-19.56 1243-18.75 1244.31-17.94 1245.19-16.88 1246.07-15.82 1246.51-14.47 1246.95-13.11 1246.95-11.4L1246.95-11.4Q1246.95-8.69 1245.9-6.45 1244.85-4.2 1242.96-2.6 1241.07-1 1238.41-0.12 1235.74 0.76 1232.52 0.76L1232.52 0.76Q1229.62 0.76 1227.6 0.13 1225.59-0.49 1224.29-1.55 1223-2.61 1222.35-3.98 1221.71-5.35 1221.54-6.86L1221.54-6.86 1219.22-6.86 1220.17-10.74 1226.81-10.74 1226.37-8.94Q1226.03-6.3 1227.91-5 1229.79-3.71 1233.35-3.71L1233.35-3.71Q1235.18-3.71 1236.72-4.22 1238.26-4.74 1239.37-5.65 1240.48-6.57 1241.12-7.85 1241.75-9.13 1241.75-10.64L1241.75-10.64Q1241.75-11.82 1241.34-12.67 1240.92-13.53 1240.2-14.15 1239.48-14.77 1238.52-15.22 1237.55-15.67 1236.45-16.04L1236.45-16.04 1232.2-17.41Q1228.88-18.46 1227.18-20.53 1225.47-22.61 1225.47-25.85L1225.47-25.85Q1225.47-28.34 1226.42-30.48 1227.37-32.62 1229.19-34.19 1231.01-35.77 1233.61-36.66 1236.21-37.55 1239.5-37.55L1239.5-37.55Q1241.58-37.55 1243.31-37.08 1245.05-36.62 1246.38-35.79 1247.71-34.96 1248.62-33.79 1249.54-32.62 1249.95-31.2L1249.95-31.2 1252.42-31.2 1251.47-27.29 1245.12-27.29ZM1251.27-2.91L1251.27-2.91Q1251.27-3.56 1251.53-4.15 1251.78-4.74 1252.22-5.16 1252.66-5.59 1253.25-5.85 1253.83-6.1 1254.52-6.1L1254.52-6.1Q1255.18-6.1 1255.76-5.85 1256.35-5.59 1256.78-5.16 1257.2-4.74 1257.46-4.15 1257.71-3.56 1257.71-2.91L1257.71-2.91Q1257.71-2.25 1257.46-1.65 1257.2-1.05 1256.78-0.6 1256.35-0.15 1255.76 0.12 1255.18 0.39 1254.52 0.39L1254.52 0.39Q1253.83 0.39 1253.25 0.12 1252.66-0.15 1252.22-0.6 1251.78-1.05 1251.53-1.65 1251.27-2.25 1251.27-2.91Z" opacity="1" transform="matrix(1,0,0,1,0,0)" fill="#111111" class="slogan-text-1" data-fill-palette-color="secondary" id="text-1"></path></svg></g></svg></g></svg></g></svg></g><g><svg viewBox="0 0 128.544 134.64193315247564" height="134.64193315247564" width="128.544"><g><svg version="1.0" xmlns="http://www.w3.org/2000/svg" xmlns:xlink="http://www.w3.org/1999/xlink" x="0" y="0" viewBox="0 0 95.471 100" enable-background="new 0 0 95.471 100" xml:space="preserve" width="128.544" height="134.64193315247564" class="icon-icon-0" data-fill-palette-color="accent" id="icon-0"><path d="M47.735 0c-0.083 2.825-1.738 13.412-19.799 30.934C10.554 47.797 2.439 49.824 0 50c2.439 0.178 10.554 2.204 27.936 19.066C45.997 86.589 47.652 97.177 47.735 100c0.083-2.823 1.739-13.411 19.798-30.934C84.917 52.204 93.031 50.178 95.471 50c-2.439-0.176-10.554-2.203-27.938-19.066C49.475 13.412 47.819 2.825 47.735 0z" fill="#ff0000" data-fill-palette-color="accent"></path></svg></g></svg></g></svg></g></svg></g></svg></g></svg></g><defs></defs></svg><rect width="320" height="360" fill="none" stroke="none" visibility="hidden"></rect></g></svg></g></svg>